<?xml version="1.0" encoding="UTF-8"?>
<svg id="Layer_1" xmlns="http://www.w3.org/2000/svg" version="1.1" viewBox="0 0 120 40">
  <!-- Generator: Adobe Illustrator 29.2.1, SVG Export Plug-In . SVG Version: 2.1.0 Build 116)  -->
  <defs>
    <style>
      .st0 {
        fill: #0f0f0f;
      }
    </style>
  </defs>
  <path class="st0" d="M47.8,14.1h-5.7c-.2,0-.4-.2-.4-.4V.6c0-.2-.2-.4-.4-.4h-3.3c-.2,0-.4.2-.4.4v16.8c0,.2.2.4.4.4h9.8c.2,0,.4-.2.4-.4v-3c0-.2-.2-.4-.4-.4Z"/>
  <path class="st0" d="M55.7,0c-4.5,0-6.7,2.6-6.7,6.5v5.1c0,3.9,2.2,6.5,6.7,6.5s6.6-2.6,6.6-6.5v-5.1c0-3.9-2.2-6.5-6.6-6.5ZM58.1,11.4c0,2-.6,3-2.4,3s-2.5-1-2.5-3v-4.6c0-1.9.7-3,2.5-3s2.4,1,2.4,3v4.6Z"/>
  <path class="st0" d="M70.8,18.1c3.4,0,5-1.5,6-3.5.1-.2,0-.5-.2-.6l-2.5-1.3c-.2-.1-.5,0-.6.2-.5.9-1.3,1.5-2.5,1.5-1.9,0-2.7-1.3-2.7-3v-4.7c0-1.6.7-3,2.6-3s2,.6,2.5,1.4c.1.2.4.3.6.2l2.5-1.2c.2-.1.3-.4.2-.6-1.1-2-2.7-3.5-5.9-3.5s-6.7,2.6-6.7,6.5v5.1c0,3.9,2.2,6.5,6.7,6.5Z"/>
  <path class="st0" d="M87,.5c0-.2-.2-.3-.4-.3h-3.3c-.2,0-.4.1-.4.3l-5.3,16.8c0,.3.1.6.4.6h3.4c.2,0,.4-.1.4-.3l.8-2.8c0-.2.2-.3.4-.3h3.7c.2,0,.4.1.4.3l.8,2.8c0,.2.2.3.4.3h3.4c.3,0,.5-.3.4-.6L87,.5ZM85.7,10.8h-1.6c-.3,0-.5-.3-.4-.6l1.2-4.6h.1l1.2,4.6c0,.3-.1.6-.4.6Z"/>
  <path class="st0" d="M94.2,17.9h9.8c.2,0,.4-.2.4-.4v-3c0-.2-.2-.4-.4-.4h-5.7c-.2,0-.4-.2-.4-.4V.6c0-.2-.2-.4-.4-.4h-3.3c-.2,0-.4.2-.4.4v16.8c0,.2.2.4.4.4Z"/>
  <path class="st0" d="M47.8,33.9h-5.7c-.2,0-.4-.2-.4-.4v-13c0-.2-.2-.4-.4-.4h-3.3c-.2,0-.4.2-.4.4v16.8c0,.2.2.4.4.4h9.8c.2,0,.4-.2.4-.4v-3c0-.2-.2-.4-.4-.4Z"/>
  <path class="st0" d="M60.4,20h-9.9c-.2,0-.4.2-.4.4v16.8c0,.2.2.4.4.4h9.9c.2,0,.4-.2.4-.4v-2.7c0-.2-.2-.4-.4-.4h-5.7c-.2,0-.4-.2-.4-.4v-2.8c0-.2.2-.4.4-.4h5.1c.2,0,.4-.2.4-.4v-2.7c0-.2-.2-.4-.4-.4h-5.1c-.2,0-.4-.2-.4-.4v-2.4c0-.2.2-.4.4-.4h5.7c.2,0,.4-.2.4-.4v-2.7c0-.2-.2-.4-.4-.4Z"/>
  <path class="st0" d="M69.5,20h-5.8c-.2,0-.4.2-.4.4v16.8c0,.2.2.4.4.4h6.3c4,0,6.8-3.3,6.8-8.9s-2.8-8.8-7.3-8.8ZM69.2,34.1h-1.3c-.2,0-.4-.2-.4-.4v-9.6c0-.2.2-.4.4-.4h1.3c2.8,0,3.4,2.6,3.4,5.1s-.7,5.4-3.4,5.4Z"/>
  <path class="st0" d="M91,27.5h-5.9c-.2,0-.4.2-.4.4v2.5c0,.2.2.4.4.4h2.1c.2,0,.4.2.4.4v1.7c0,.1,0,.2-.1.3-.4.5-1.1.9-2.4.9-1.9,0-2.6-1.4-2.6-3v-4.6c0-1.6.9-3,2.7-3s2.1.6,2.6,1.4c.1.2.4.3.6.2l2.4-1.2c.2-.1.3-.4.2-.6-1.1-2-2.7-3.5-5.9-3.5s-6.7,2.6-6.7,6.5v5.1c0,3.9,2.2,6.5,6.7,6.5s5-1.4,6.3-3.1c0,0,0-.2,0-.3v-6.7c0-.2-.2-.4-.4-.4Z"/>
  <path class="st0" d="M104.1,20h-9.9c-.2,0-.4.2-.4.4v16.8c0,.2.2.4.4.4h9.9c.2,0,.4-.2.4-.4v-2.7c0-.2-.2-.4-.4-.4h-5.7c-.2,0-.4-.2-.4-.4v-2.8c0-.2.2-.4.4-.4h5.1c.2,0,.4-.2.4-.4v-2.7c0-.2-.2-.4-.4-.4h-5.1c-.2,0-.4-.2-.4-.4v-2.4c0-.2.2-.4.4-.4h5.7c.2,0,.4-.2.4-.4v-2.7c0-.2-.2-.4-.4-.4Z"/>
  <path class="st0" d="M119.9,37.1l-3.2-5.7c-.1-.2,0-.5.2-.6,1.3-.7,2.4-2.2,2.4-4.9,0-4.2-2.5-5.8-6.7-5.8h-5.3c-.2,0-.4.2-.4.4v16.8c0,.2.2.4.4.4h3.2c.2,0,.4-.2.4-.4v-5.2c0-.2.2-.4.4-.4h.9c.2,0,.3,0,.4.2l2.7,5.6c0,.2.2.2.4.2h3.6c.3,0,.6-.4.4-.7ZM112.8,28.1h-1.2c-.2,0-.4-.2-.4-.4v-3.6c0-.2.2-.4.4-.4h1c1.7,0,2.7.5,2.7,2.2s-.9,2.2-2.4,2.2Z"/>
  <path class="st0" d="M30.5,6.1h-4.7V1.4s0,0,0-.1c0,0,0,0,0,0,0,0,0,0,0,0,0,0,0,0,0,0,0,0,0,0,0,0,0,0,0,0,0,0,0,0,0,0,0,0,0,0,0,0,0,0,0,0,0,0,0,0,0,0,0,0,0,0,0,0,0,0,0,0,0,0,0,0,0,0,0,0,0,0,0,0,0,0-.1-.1-.2-.2,0,0,0,0,0,0,0,0,0,0,0,0,0,0,0,0,0,0,0,0,0,0,0,0,0,0,0,0,0,0,0,0,0,0,0,0,0,0,0,0,0,0,0,0,0,0,0,0,0,0,0,0,0,0,0,0,0,0,0,0,0,0,0,0,0,0,0,0,0,0,0,0,0,0,0,0-.1,0h-11.7c-.6,0-1.2.5-1.2,1.2v16.4H1.2c-.6,0-1.2.5-1.2,1.2v11.7s0,0,0,0c0,0,0,0,0,.1,0,0,0,0,0,0,0,0,0,0,0,0s0,0,0,0c0,0,0,0,0,0,0,0,0,0,0,0,0,0,0,0,0,0,0,0,0,0,0,0,0,0,0,0,0,0,0,0,0,0,0,0,0,0,0,0,0,0,0,0,0,0,0,0,0,0,0,0,0,0,0,0,0,0,0,0,0,0,0,0,0,0s0,0,0,0c0,0,0,0,0,0,0,0,0,0,0,0,0,0,0,0,0,0,0,0,0,0,0,0,0,0,0,0,0,0,0,0,0,0,0,0,0,0,0,0,0,0,0,0,0,0,0,0,0,0,0,0,0,0,0,0,0,0,0,0,0,0,0,0,0,0,0,0,0,0,0,0,0,0,0,0,0,0,0,0,0,0,.1,0h4.7v4.7c0,.6.5,1.2,1.2,1.2h23.4c.6,0,1.2-.5,1.2-1.2V7.2c0-.6-.5-1.2-1.2-1.2ZM21.6,6.1l1.9-1.9v1.9h-1.9ZM23.4,8.4v21.1h-15.2v-3.5h10.5c.6,0,1.2-.5,1.2-1.2V8.4h3.5ZM5.9,29.5h-1.9l1.9-1.9v1.9ZM6.9,23.6s0,0,0,0c0,0,0,0,0,0,0,0,0,0,0,0,0,0,0,0,0,0,0,0,0,0,0,0,0,0,0,0,0,0,0,0,0,0,0,0,0,0,0,0,0,0,0,0,0,0,0,0,0,0,0,0,0,0,0,0,0,0,0,0,0,0,0,0,0,0,0,0,0,0,0,0,0,0,0,0,0,0l-3.9,3.9v-7.7h10.5c.6,0,1.2-.5,1.2-1.2V2.5h7.7l-3.9,3.9s0,0,0,0c0,0,0,0,0,0,0,0,0,0,0,0,0,0,0,0,0,0,0,0,0,0,0,0,0,0,0,0,0,0,0,0,0,0,0,0,0,0,0,0,0,0,0,0,0,0,0,0,0,0,0,0,0,0,0,0,0,0,0,0,0,0,0,0,0,0,0,0,0,0,0,0,0,0,0,0,0,.1v16.4H7s0,0-.1,0ZM29.3,35.4H8.2v-3.5h16.4c.6,0,1.2-.5,1.2-1.2V8.4h3.5v26.9Z"/>
</svg>