<?xml version="1.0" encoding="UTF-8"?>
<svg xmlns="http://www.w3.org/2000/svg" version="1.1" viewBox="0 0 169.5 171">
  <!-- Generator: Adobe Illustrator 28.7.3, SVG Export Plug-In . SVG Version: 1.2.0 Build 164)  -->
  <g>
    <g id="Layer_1">
      <g>
        <path d="M159.97,86.6c-.59-.61-.59-1.6,0-2.21l3.81-3.9c2.06-2.11,2.98-5,2.52-7.91s-2.23-5.38-4.84-6.75l-4.83-2.53c-.77-.4-1.07-1.32-.68-2.1l2.42-4.89c1.31-2.65,1.29-5.67-.05-8.3-1.34-2.63-3.78-4.42-6.69-4.92l-5.37-.92c-.85-.15-1.42-.93-1.3-1.78l.79-5.4c.43-2.92-.53-5.79-2.61-7.88s-4.96-3.05-7.88-2.61l-5.4.79c-.86.13-1.64-.44-1.79-1.3l-.92-5.37c-.5-2.91-2.29-5.35-4.92-6.69-2.63-1.34-5.66-1.36-8.3-.05l-4.89,2.42c-.78.39-1.7.08-2.1-.68l-2.53-4.83c-1.37-2.61-3.83-4.38-6.75-4.84-2.92-.46-5.8.46-7.91,2.52l-3.9,3.81c-.62.61-1.59.6-2.21,0l-3.9-3.81c-2.11-2.06-5-2.98-7.91-2.52-2.92.46-5.37,2.23-6.75,4.84l-2.53,4.83c-.4.77-1.32,1.07-2.1.68l-4.89-2.42c-2.65-1.31-5.67-1.29-8.3.05-2.63,1.34-4.42,3.78-4.92,6.69l-.92,5.38c-.14.85-.92,1.43-1.79,1.3l-5.39-.79c-2.93-.43-5.79.53-7.88,2.61-2.09,2.09-3.04,4.96-2.61,7.88l.79,5.4c.13.86-.45,1.64-1.3,1.78l-5.37.92c-2.91.5-5.35,2.29-6.69,4.92-1.34,2.63-1.36,5.66-.05,8.3l2.42,4.89c.38.78.08,1.7-.68,2.1l-4.83,2.53c-2.61,1.37-4.38,3.83-4.84,6.75s.46,5.8,2.52,7.91l3.81,3.9c.59.61.59,1.6,0,2.21l-3.81,3.9c-2.06,2.11-2.98,5-2.52,7.91s2.23,5.38,4.84,6.75l4.83,2.53c.77.4,1.07,1.32.68,2.1l-2.42,4.89c-1.31,2.65-1.29,5.67.05,8.3s3.78,4.42,6.69,4.92l5.37.92c.84.14,1.42.94,1.3,1.78l-.79,5.4c-.43,2.92.53,5.79,2.61,7.88,2.09,2.09,4.96,3.04,7.88,2.61l5.39-.79c.84-.12,1.64.46,1.79,1.3l.92,5.37c.5,2.91,2.29,5.35,4.92,6.69,2.63,1.34,5.66,1.36,8.3.05l4.89-2.42c.78-.39,1.7-.09,2.1.68l2.53,4.83c1.37,2.62,3.83,4.38,6.75,4.84.5.08.99.12,1.48.12,2.39,0,4.68-.92,6.43-2.64l3.9-3.81c.62-.6,1.59-.6,2.21,0l3.9,3.81c2.11,2.06,5,2.98,7.91,2.52,2.92-.46,5.38-2.23,6.75-4.84l2.53-4.83c.4-.77,1.32-1.07,2.1-.68l4.89,2.42c2.65,1.31,5.67,1.29,8.3-.05,2.63-1.34,4.42-3.78,4.92-6.69l.92-5.37c.15-.85.94-1.43,1.78-1.3l5.4.79c2.92.43,5.79-.52,7.88-2.61,2.09-2.09,3.04-4.96,2.61-7.88l-.79-5.39c-.12-.84.46-1.64,1.3-1.79l5.37-.92c2.91-.5,5.35-2.29,6.69-4.92s1.36-5.66.05-8.3l-2.42-4.89c-.38-.78-.08-1.7.68-2.1l4.83-2.53c2.61-1.37,4.38-3.83,4.84-6.75s-.46-5.8-2.52-7.91l-3.81-3.9ZM154.48,91.96l3.81,3.9c.48.49.48,1.06.43,1.35-.05.29-.22.83-.83,1.15l-4.83,2.53c-4.49,2.35-6.24,7.76-3.99,12.3l2.42,4.89c.31.62.13,1.15,0,1.42-.13.26-.46.72-1.14.84l-5.37.92c-4.91.84-8.32,5.53-7.6,10.46l.79,5.39c.1.68-.24,1.14-.45,1.35s-.66.54-1.34.45l-5.4-.79c-5.02-.72-9.61,2.61-10.46,7.6l-.92,5.37c-.12.68-.58,1.01-.84,1.14-.26.13-.8.32-1.42,0l-4.89-2.42c-4.54-2.25-9.94-.49-12.3,4l-2.53,4.83c-.32.61-.86.78-1.15.83-.3.04-.86.05-1.35-.43l-3.9-3.81c-3.63-3.54-9.3-3.54-12.93,0l-3.9,3.81c-.49.48-1.06.47-1.35.43-.29-.05-.83-.22-1.15-.83l-2.53-4.83c-1.66-3.17-4.84-4.97-8.16-4.97-1.39,0-2.8.31-4.14.98l-4.89,2.42c-.62.3-1.15.12-1.42,0-.26-.13-.72-.46-.84-1.14l-.92-5.37c-.84-4.91-5.52-8.32-10.46-7.6l-5.39.79c-.68.09-1.14-.24-1.35-.45-.21-.21-.55-.66-.45-1.35l.79-5.4c.72-4.93-2.69-9.62-7.6-10.46l-5.37-.92c-.68-.12-1.01-.58-1.14-.84-.13-.26-.31-.8,0-1.42l2.42-4.89c2.25-4.54.49-9.94-3.99-12.3l-4.83-2.53c-.61-.32-.78-.86-.83-1.15-.05-.29-.05-.86.43-1.35l3.81-3.9c3.48-3.57,3.48-9.37,0-12.93l-3.81-3.9c-.48-.49-.48-1.06-.43-1.35.05-.29.22-.83.83-1.15l4.83-2.53c4.49-2.35,6.24-7.76,4-12.3l-2.42-4.89c-.31-.62-.13-1.15,0-1.42s.46-.72,1.14-.84l5.37-.92c4.99-.85,8.33-5.45,7.6-10.46l-.79-5.4c-.1-.68.24-1.14.45-1.35.21-.21.65-.54,1.35-.45l5.39.79c4.93.71,9.62-2.69,10.46-7.6l.92-5.37c.12-.68.58-1.01.84-1.14.26-.14.8-.32,1.42,0l4.89,2.42c4.54,2.24,9.94.49,12.3-4l2.53-4.83c.32-.61.86-.78,1.15-.83.29-.05.86-.05,1.35.43l3.9,3.81c3.62,3.54,9.3,3.54,12.93,0l3.9-3.81c.49-.48,1.05-.48,1.35-.43.29.05.83.22,1.15.83l2.53,4.83c2.35,4.49,7.75,6.24,12.3,4l4.89-2.42c.62-.31,1.16-.13,1.42,0,.26.13.72.46.84,1.14l.92,5.37c.85,5,5.45,8.33,10.46,7.6l5.4-.79c.68-.1,1.14.24,1.35.45.21.21.55.66.45,1.35l-.79,5.4c-.73,5.01,2.61,9.61,7.6,10.46l5.37.92c.68.12,1.01.58,1.14.84.13.26.31.8,0,1.42l-2.42,4.89c-2.25,4.54-.49,9.94,4,12.3l4.83,2.53c.61.32.78.86.83,1.15.05.29.05.86-.43,1.35l-3.81,3.9c-3.48,3.57-3.48,9.37,0,12.93Z"/>
        <path d="M119.56,49.43h-12.51v-12.26c0-.1,0-.2-.02-.3,0-.05-.01-.09-.02-.14,0-.05-.01-.11-.03-.16-.01-.05-.02-.1-.04-.15-.01-.05-.02-.09-.04-.14-.02-.05-.03-.1-.05-.15-.02-.05-.03-.09-.05-.14-.02-.05-.04-.09-.06-.13-.02-.05-.04-.09-.07-.14-.02-.04-.05-.08-.08-.12-.03-.04-.05-.09-.08-.13-.03-.05-.07-.09-.1-.13-.03-.04-.05-.07-.08-.11-.13-.16-.28-.3-.44-.43-.04-.03-.07-.05-.11-.08-.05-.03-.09-.07-.14-.1-.04-.03-.09-.05-.14-.08-.04-.02-.08-.05-.13-.07-.05-.02-.09-.04-.14-.07-.05-.02-.09-.04-.14-.06-.05-.02-.09-.03-.14-.05-.05-.02-.1-.04-.15-.05-.05-.01-.09-.02-.14-.04-.05-.01-.1-.03-.16-.04-.05-.01-.11-.02-.16-.02-.05,0-.09-.02-.14-.02-.1,0-.21-.02-.31-.02h-31.27c-1.73,0-3.13,1.37-3.13,3.06v42.89h-28.14c-1.73,0-3.13,1.37-3.13,3.06v30.64s0,0,0,.01c0,.1,0,.19.01.29,0,.05.01.09.02.14,0,.05.01.11.02.16.01.05.03.1.04.15.01.05.02.09.04.14.02.05.03.1.05.15.02.05.03.09.05.14s.04.09.06.13c.02.05.04.09.07.14.02.04.05.08.07.12.03.05.05.09.08.14.03.04.06.08.09.13.03.04.06.08.09.11.06.07.12.14.19.2,0,0,.01.01.02.02,0,0,.01.01.02.02.07.06.13.13.21.18.04.03.08.06.12.09.04.03.08.06.13.09.05.03.09.06.14.08.04.02.08.05.12.07.05.02.1.05.14.07.04.02.09.04.13.06.05.02.09.03.14.05.05.02.1.04.15.05.05.01.1.02.14.04.05.01.1.03.15.04.05.01.11.02.17.02.05,0,.09.01.14.02.1,0,.21.02.31.02h12.51v12.26c0,1.69,1.4,3.06,3.13,3.06h62.54c1.73,0,3.13-1.37,3.13-3.06V52.49c0-1.69-1.4-3.06-3.13-3.06ZM95.84,49.43l4.96-4.86v4.86h-4.96ZM100.8,55.56v55.15h-40.65v-9.19h28.14c1.73,0,3.13-1.37,3.13-3.06v-42.89h9.38ZM53.89,110.71h-4.96l4.96-4.86v4.86ZM56.71,95.4s-.08.01-.13.02c-.06,0-.12.01-.18.03-.05,0-.1.02-.15.04-.05.01-.1.02-.15.04-.05.01-.1.03-.14.05-.05.02-.1.03-.15.05-.04.02-.09.04-.13.06-.05.02-.1.04-.15.07-.04.02-.08.05-.12.07-.05.03-.1.05-.14.09-.04.03-.08.06-.13.09-.04.03-.08.06-.12.09-.07.06-.14.12-.21.18,0,0-.01.01-.02.02l-10.3,10.09v-20.18h28.14c1.73,0,3.13-1.37,3.13-3.06v-42.89h20.59l-10.3,10.09c-.07.07-.14.15-.21.23-.03.03-.05.07-.08.11-.03.04-.07.09-.1.13-.03.04-.06.09-.08.13-.03.04-.05.08-.08.12-.02.05-.05.09-.07.14-.02.04-.04.09-.06.13-.02.04-.03.09-.05.14-.02.05-.04.1-.05.15-.01.05-.02.09-.04.14-.01.05-.03.1-.04.15-.01.05-.02.11-.03.16,0,.05-.02.09-.02.13-.01.1-.02.2-.02.3v42.89h-28.14c-.1,0-.21,0-.31.02ZM116.44,126.03h-56.29v-9.19h43.78c1.73,0,3.13-1.37,3.13-3.06v-58.21h9.38v70.47Z"/>
      </g>
    </g>
  </g>
</svg>