<?xml version="1.0" encoding="UTF-8"?>
<svg xmlns="http://www.w3.org/2000/svg" version="1.1" viewBox="0 0 169.5 171">
  <!-- Generator: Adobe Illustrator 28.7.3, SVG Export Plug-In . SVG Version: 1.2.0 Build 164)  -->
  <g>
    <g id="Layer_1">
      <g>
        <path d="M144.94,3.5H24.56C12.53,3.5,2.75,13.28,2.75,25.31v120.38c0,12.03,9.78,21.81,21.81,21.81h120.38c12.03,0,21.81-9.78,21.81-21.81V25.31c0-12.03-9.78-21.81-21.81-21.81ZM159.5,145.69c0,8.03-6.53,14.56-14.56,14.56H24.56c-8.03,0-14.56-6.53-14.56-14.56V25.31c0-8.03,6.53-14.56,14.56-14.56h120.38c8.03,0,14.56,6.53,14.56,14.56v120.38Z"/>
        <path d="M130.96,44.84h-14.79v-14.79c0-.12,0-.24-.02-.36,0-.06-.02-.11-.02-.16,0-.06-.02-.13-.03-.19-.01-.06-.03-.12-.04-.18-.01-.06-.03-.11-.04-.17-.02-.06-.04-.12-.06-.18-.02-.05-.04-.11-.06-.16-.02-.05-.05-.11-.07-.16-.03-.06-.05-.11-.08-.17-.03-.05-.06-.1-.09-.15-.03-.05-.06-.11-.1-.16-.04-.06-.08-.11-.12-.16-.03-.04-.06-.09-.1-.13-.15-.19-.33-.36-.52-.52-.04-.03-.09-.06-.13-.1-.05-.04-.11-.08-.16-.12-.05-.03-.11-.07-.16-.1-.05-.03-.1-.06-.15-.09-.05-.03-.11-.05-.17-.08-.05-.03-.11-.05-.16-.07-.05-.02-.11-.04-.16-.06-.06-.02-.12-.04-.18-.06-.06-.02-.11-.03-.17-.04-.06-.02-.12-.03-.18-.04-.06-.01-.13-.02-.19-.03-.05,0-.11-.02-.16-.02-.12-.01-.24-.02-.36-.02h-36.96c-2.04,0-3.7,1.65-3.7,3.7v51.75h-33.27c-2.04,0-3.7,1.65-3.7,3.7v36.96s0,.01,0,.02c0,.12,0,.23.02.35,0,.06.02.11.02.17,0,.06.02.13.03.19.01.06.03.12.05.19.01.06.03.11.04.17.02.06.04.12.06.18.02.06.04.11.06.17.02.05.05.11.07.16.03.06.05.11.08.17.03.05.06.1.09.15.03.05.06.11.1.16.03.05.07.1.11.15.03.05.07.09.1.14.07.09.14.17.22.24,0,0,.01.02.02.03s.02.02.03.02c.08.08.16.15.24.22.05.04.09.07.14.11.05.04.1.08.15.11.05.04.11.07.17.1.05.03.09.06.14.08.06.03.11.06.17.08.05.02.1.05.16.07.06.02.11.04.17.06.06.02.11.04.17.06.06.02.11.03.17.04.06.02.12.03.18.04.06.01.13.02.2.03.05,0,.11.02.16.02.12.01.24.02.36.02h14.79v14.79c0,2.04,1.65,3.7,3.7,3.7h73.93c2.04,0,3.7-1.65,3.7-3.7V48.54c0-2.04-1.65-3.7-3.7-3.7ZM102.91,44.84l5.86-5.86v5.86h-5.86ZM108.78,52.23v66.54h-48.05v-11.09h33.27c2.04,0,3.7-1.65,3.7-3.7v-51.75h11.09ZM53.33,118.77h-5.86l5.86-5.86v5.86ZM56.66,100.3c-.05,0-.1.01-.15.02-.07,0-.14.02-.21.03-.06.01-.12.03-.17.04-.06.01-.12.03-.18.05-.06.02-.11.04-.17.06-.06.02-.12.04-.17.06-.05.02-.1.05-.15.07-.06.03-.12.05-.17.08-.05.03-.09.06-.14.08-.06.03-.11.07-.17.1-.05.03-.1.07-.15.11-.05.04-.1.07-.14.11-.08.07-.17.14-.24.22,0,0-.02.02-.03.02l-12.17,12.17v-24.34h33.27c2.04,0,3.7-1.65,3.7-3.7v-51.75h24.34l-12.17,12.17c-.09.09-.17.18-.25.27-.03.04-.06.09-.1.13-.04.05-.08.11-.12.16-.03.05-.07.11-.1.16-.03.05-.06.1-.09.15-.03.05-.05.11-.08.17-.03.05-.05.11-.07.16-.02.05-.04.11-.06.16-.02.06-.04.12-.06.18-.02.06-.03.11-.04.17-.02.06-.03.12-.04.18-.01.06-.02.13-.03.19,0,.05-.02.11-.02.16-.01.12-.02.24-.02.36v51.75h-33.27c-.12,0-.25,0-.37.02ZM127.26,137.25H60.72v-11.09h51.75c2.04,0,3.7-1.65,3.7-3.7V52.23h11.09v85.02Z"/>
      </g>
    </g>
  </g>
</svg>