<?xml version="1.0" encoding="UTF-8"?>
<svg id="Layer_1" xmlns="http://www.w3.org/2000/svg" version="1.1" viewBox="0 0 169.5 171">
  <!-- Generator: Adobe Illustrator 29.2.1, SVG Export Plug-In . SVG Version: 2.1.0 Build 116)  -->
  <g id="Layer_11" data-name="Layer_1">
    <path d="M138.7,26.8h-21.3V5.5c0-.2,0-.3,0-.5,0,0,0-.2,0-.2s0-.2,0-.3c0,0,0-.2,0-.3s0-.2,0-.2c0,0,0-.2,0-.3,0,0,0-.2,0-.2s0-.2-.1-.2c0,0,0-.2-.1-.2,0,0,0-.1-.1-.2s0-.2-.1-.2c0,0-.1-.2-.2-.2,0,0,0-.1-.1-.2-.2-.3-.5-.5-.8-.8,0,0-.1,0-.2-.1,0,0-.2-.1-.2-.2,0,0-.2-.1-.2-.1s-.1,0-.2-.1-.2,0-.2-.1c0,0-.2,0-.2-.1s-.2,0-.2,0c0,0-.2,0-.3,0,0,0-.2,0-.2,0,0,0-.2,0-.3,0s-.2,0-.3,0c0,0-.2,0-.2,0-.2,0-.3,0-.5,0h-53.3c-2.9,0-5.3,2.4-5.3,5.3v74.7H5.3c-2.9,0-5.3,2.4-5.3,5.3v53.3h0c0,.2,0,.4,0,.5,0,0,0,.2,0,.2s0,.2,0,.3c0,0,0,.2,0,.3,0,0,0,.2,0,.2,0,0,0,.2,0,.3s0,.2,0,.2c0,0,0,.2.1.2,0,0,0,.2.1.2,0,0,0,.1.1.2s0,.2.1.2c0,0,.1.1.2.2,0,0,.1.1.1.2.1.1.2.2.3.3,0,0,0,0,0,0s0,0,0,0c.1.1.2.2.3.3,0,0,.1.1.2.2s.1.1.2.2c0,0,.2.1.2.1,0,0,.1,0,.2.1,0,0,.2,0,.2.1,0,0,.1,0,.2.1s.2,0,.2,0c0,0,.2,0,.2,0,0,0,.2,0,.2,0,0,0,.2,0,.3,0s.2,0,.3,0c0,0,.2,0,.2,0,.2,0,.3,0,.5,0h21.3v21.3c0,2.9,2.4,5.3,5.3,5.3h106.7c2.9,0,5.3-2.4,5.3-5.3V32.1c0-2.9-2.4-5.3-5.3-5.3ZM98.2,26.8l8.5-8.5v8.5h-8.5ZM106.7,37.5v96H37.3v-16h48c2.9,0,5.3-2.4,5.3-5.3V37.5h16,0ZM26.6,133.5h-8.5l8.5-8.5v8.5ZM31.5,106.8c0,0-.1,0-.2,0-.1,0-.2,0-.3,0,0,0-.2,0-.2,0,0,0-.2,0-.3,0,0,0-.2,0-.2,0,0,0-.2,0-.2,0s-.1,0-.2.1c0,0-.2,0-.2.1s-.1,0-.2.1c0,0-.2.1-.2.1,0,0-.1.1-.2.2,0,0-.1.1-.2.2-.1.1-.2.2-.3.3,0,0,0,0,0,0l-17.6,17.6v-35.1h48c2.9,0,5.3-2.4,5.3-5.3V10.8h35.1l-17.6,17.6c-.1.1-.2.3-.4.4,0,0,0,.1-.1.2,0,0-.1.2-.2.2,0,0-.1.2-.1.2s0,.1-.1.2c0,0,0,.2-.1.2,0,0,0,.2-.1.2s0,.2,0,.2c0,0,0,.2,0,.3s0,.2,0,.2c0,0,0,.2,0,.3s0,.2,0,.3c0,0,0,.2,0,.2,0,.2,0,.3,0,.5v74.7h-48c-.2,0-.4,0-.5,0h0ZM133.3,160.1H37.3v-16h74.7c2.9,0,5.3-2.4,5.3-5.3V37.5h16s0,122.7,0,122.7Z"/>
  </g>
</svg>